<svg width="26" height="26" viewBox="0 0 26 26" fill="none" xmlns="http://www.w3.org/2000/svg">
<path d="M12.9971 0.00195312C16.5277 0.00195782 16.9684 0.0183589 18.3555 0.0800781C19.7381 0.143443 20.6841 0.362894 21.5127 0.68457C22.3806 1.01007 23.1669 1.52231 23.8154 2.18457C24.4775 2.83301 24.99 3.61863 25.3154 4.48633C25.6354 5.31167 25.8549 6.25808 25.9199 7.64062C25.9816 9.0277 25.998 9.47077 25.998 13.001C25.998 16.5311 25.9817 16.9736 25.9199 18.3594C25.8549 19.7433 25.6354 20.6878 25.3154 21.5146C24.9824 22.3692 24.5384 23.0944 23.8154 23.8174C23.1674 24.4794 22.3819 24.9917 21.5146 25.3174C20.6877 25.6391 19.74 25.8569 18.3574 25.9219C16.9699 25.9836 16.5295 26 12.999 26C9.46848 26 9.02606 25.9836 7.63867 25.9219C6.25465 25.8585 5.31192 25.639 4.4834 25.3174C3.6289 24.986 2.9039 24.5402 2.18262 23.8174C1.45966 23.0944 1.0157 22.3692 0.682617 21.5146C0.360972 20.6877 0.143138 19.7434 0.078125 18.3594C0.0163873 16.9735 1.29563e-06 16.5306 0 13.002C1.26758e-06 9.47027 0.0163985 9.02753 0.078125 7.63867C0.141489 6.25779 0.36098 5.31165 0.682617 4.48633C1.00809 3.61859 1.52049 2.83301 2.18262 2.18457C2.83107 1.52238 3.6166 1.01008 4.48438 0.68457C5.31141 0.362857 6.25565 0.145077 7.6416 0.0800781C9.02737 0.0183439 9.4711 0.0019584 12.9971 0.00195312ZM11.834 2.3418C9.41133 2.34342 8.94621 2.35979 7.74707 2.41504C6.47984 2.47355 5.79216 2.68456 5.33398 2.86328C4.72661 3.09882 4.29462 3.38022 3.83984 3.83496C3.38501 4.28984 3.10178 4.7241 2.86621 5.33008C2.68754 5.78826 2.47645 6.47744 2.41797 7.74414C2.35624 9.11354 2.34277 9.52229 2.34277 12.9941C2.34277 16.4658 2.35624 16.8776 2.41797 18.2471C2.47486 19.514 2.68719 20.2036 2.86426 20.6602C3.0744 21.2244 3.40817 21.7355 3.83984 22.1553C4.25987 22.5856 4.7702 22.9178 5.33398 23.127C5.79217 23.3057 6.47995 23.5167 7.74707 23.5752C9.11675 23.6369 9.52972 23.6514 13 23.6514C16.4707 23.6514 16.8822 23.6369 18.252 23.5752C19.5208 23.5167 20.2101 23.3057 20.665 23.127C21.2726 22.8914 21.7053 22.6101 22.1602 22.1553C22.5909 21.7359 22.923 21.2255 23.1328 20.6621C23.3099 20.204 23.5232 19.5161 23.5801 18.249C23.6434 16.8793 23.6562 16.4657 23.6562 12.9971C23.6562 9.52914 23.6434 9.11704 23.5801 7.74805C23.5232 6.48116 23.3115 5.79155 23.1328 5.33496C22.8972 4.72736 22.616 4.29472 22.1611 3.83984C21.7062 3.38497 21.272 3.10179 20.666 2.86621C20.2078 2.68914 19.5188 2.47677 18.252 2.41992C16.8822 2.35655 16.4707 2.34473 13 2.34473H11.834V2.3418ZM13 6.32617C14.7525 6.35352 16.4247 7.06842 17.6543 8.31738C18.8837 9.56631 19.5732 11.2494 19.5732 13.002C19.573 14.7542 18.8836 16.4368 17.6543 17.6855C16.4247 18.9344 14.7524 19.6494 13 19.6768C12.1149 19.6905 11.2358 19.5283 10.4141 19.1992C9.59212 18.87 8.8429 18.38 8.21191 17.7588C7.58128 17.1378 7.08027 16.3973 6.73828 15.5811C6.39632 14.7645 6.21984 13.8872 6.21973 13.002C6.21973 12.1166 6.39636 11.2395 6.73828 10.4229C7.08026 9.60627 7.58112 8.8653 8.21191 8.24414C8.84291 7.62291 9.59208 7.133 10.4141 6.80371C11.2359 6.47459 12.1149 6.31242 13 6.32617ZM13 8.66699C11.8509 8.6671 10.7491 9.12404 9.93652 9.93652C9.12397 10.7492 8.66699 11.8518 8.66699 13.001C8.66717 14.15 9.12399 15.2529 9.93652 16.0654C10.7491 16.8776 11.8511 17.3339 13 17.334C13.569 17.334 14.1335 17.2216 14.6592 17.0039C15.1845 16.7862 15.6623 16.4674 16.0645 16.0654C16.4667 15.6632 16.7861 15.1848 17.0039 14.6592C17.2216 14.1336 17.3339 13.5698 17.334 13.001C17.334 12.4321 17.2215 11.8684 17.0039 11.3428C16.7862 10.8171 16.4668 10.3389 16.0645 9.93652C15.6622 9.53429 15.1847 9.21483 14.6592 8.99707C14.1334 8.77929 13.5691 8.66699 13 8.66699ZM19.9385 4.50293C20.3521 4.50293 20.7485 4.66749 21.041 4.95996C21.3334 5.25244 21.498 5.64895 21.498 6.0625C21.4979 6.47605 21.3334 6.87358 21.041 7.16602C20.7485 7.45814 20.3519 7.62207 19.9385 7.62207C19.7338 7.62207 19.5309 7.58219 19.3418 7.50391C19.1528 7.42563 18.9807 7.31058 18.8359 7.16602C18.6912 7.02126 18.5755 6.84829 18.4971 6.65918C18.4189 6.47019 18.379 6.26704 18.3789 6.0625C18.3789 5.85791 18.4189 5.65487 18.4971 5.46582C18.5754 5.27666 18.6912 5.10476 18.8359 4.95996C18.9807 4.81518 19.1526 4.69947 19.3418 4.62109C19.5309 4.5428 19.7338 4.50293 19.9385 4.50293Z" fill="#F778F1"/>
</svg>
