<svg width="27" height="26" viewBox="0 0 27 26" fill="none" xmlns="http://www.w3.org/2000/svg">
<path d="M13.6445 0.00195312C17.176 0.00195601 17.6165 0.0173656 19.0039 0.0791016C20.3866 0.142469 21.3325 0.361885 22.1611 0.683594C23.0291 1.00909 23.8153 1.5213 24.4639 2.18359C25.1261 2.83211 25.6374 3.61847 25.9629 4.48633C26.2829 5.31167 26.5024 6.25712 26.5674 7.63965C26.6291 9.02723 26.6455 9.4695 26.6455 13C26.6455 16.5308 26.6291 16.9734 26.5674 18.3594C26.5024 19.7436 26.283 20.6877 25.9629 21.5146C25.6298 22.3692 25.1869 23.0944 24.4639 23.8174C23.8159 24.4794 23.0302 24.9907 22.1631 25.3164C21.3361 25.6381 20.3885 25.8559 19.0059 25.9209C17.6182 25.9826 17.1773 25.999 13.6465 25.999C10.116 25.999 9.67371 25.9826 8.28613 25.9209C6.90195 25.8575 5.95946 25.6381 5.13086 25.3164C4.27634 24.985 3.5514 24.5403 2.83008 23.8174C2.10702 23.0943 1.66317 22.3693 1.33008 21.5146C1.00839 20.6877 0.790595 19.7436 0.725586 18.3594C0.663842 16.9734 0.648438 16.5311 0.648438 13.002C0.648438 9.46985 0.663855 9.02763 0.725586 7.63867C0.788947 6.25773 1.00843 5.31168 1.33008 4.48633C1.65557 3.61841 2.1678 2.83213 2.83008 2.18359C3.47862 1.5213 4.26489 1.00909 5.13281 0.683594C5.95979 0.361934 6.9042 0.144088 8.29004 0.0791016C9.67546 0.0173834 10.1194 0.00196021 13.6445 0.00195312ZM12.208 5.98145C12.1929 5.98145 9.16751 6.02628 8.96777 5.99609V19.4111H12.1924V18.6377C12.1924 18.6377 13.157 19.79 14.875 19.79C14.875 19.79 19.3209 19.6687 19.3359 15.3486C19.351 15.3183 19.9387 10.2706 15.1611 9.83105C15.1267 9.8309 12.9559 9.82638 12.208 11.1191V5.98145ZM14.167 13.0449C15.1918 13.045 16.0205 13.8785 16.0205 14.9092C16.0205 15.9399 15.1917 16.7734 14.167 16.7734C13.1422 16.7734 12.3135 15.9399 12.3135 14.9092C12.3135 13.8784 13.1422 13.0449 14.167 13.0449Z" fill="#36CF4B"/>
</svg>
