<svg width="27" height="26" viewBox="0 0 27 26" fill="none" xmlns="http://www.w3.org/2000/svg">
<path d="M13.1543 0C20.3328 6.0993e-05 26.1533 5.85604 26.1533 13.0801C26.1531 19.6068 21.3987 25.0175 15.1855 25.999V16.8594H18.2158L18.791 13.0801H15.1865V10.626C15.1866 9.59109 15.6906 8.58217 17.3037 8.58203H18.9434V5.36523C18.9293 5.36282 17.4498 5.10938 16.0332 5.10938C13.0647 5.10946 11.123 6.92002 11.123 10.1973V13.0811H7.82129V16.8604H11.1201V26C4.9067 25.0186 0.152344 19.6081 0.152344 13.0811C0.152485 5.85547 5.97255 0.00162483 13.1543 0Z" fill="#3B5998"/>
</svg>
