<svg width="27" height="26" viewBox="0 0 27 26" fill="none" xmlns="http://www.w3.org/2000/svg">
<path d="M13.3086 0.00195312C16.84 0.00195649 17.2805 0.0173637 18.668 0.0791016C20.0507 0.142475 20.9965 0.36188 21.8252 0.683594C22.693 1.00905 23.4785 1.52145 24.127 2.18359C24.7892 2.83214 25.3015 3.61841 25.627 4.48633C25.947 5.31166 26.1664 6.25714 26.2314 7.63965C26.2932 9.02723 26.3096 9.4695 26.3096 13C26.3096 16.5308 26.2932 16.9734 26.2314 18.3594C26.1664 19.7436 25.947 20.6877 25.627 21.5146C25.2939 22.3693 24.85 23.0944 24.127 23.8174C23.479 24.4793 22.6933 24.9908 21.8262 25.3164C20.9993 25.638 20.0523 25.8559 18.6699 25.9209C17.2823 25.9826 16.8413 25.999 13.3105 25.999C9.77993 25.999 9.33779 25.9826 7.9502 25.9209C6.56593 25.8575 5.62356 25.6381 4.79492 25.3164C3.94038 24.985 3.21547 24.5403 2.49414 23.8174C1.77109 23.0943 1.32723 22.3693 0.994141 21.5146C0.672443 20.6877 0.454659 19.7436 0.389648 18.3594C0.327904 16.9734 0.311523 16.5311 0.311523 13.002C0.311523 9.46984 0.327917 9.02763 0.389648 7.63867C0.453011 6.2577 0.672478 5.31169 0.994141 4.48633C1.31964 3.61841 1.83185 2.83214 2.49414 2.18359C3.14267 1.52133 3.92898 1.00908 4.79688 0.683594C5.62382 0.361963 6.56834 0.144085 7.9541 0.0791016C9.33942 0.0173882 9.78344 0.00195974 13.3086 0.00195312ZM10.9316 8.12793C10.7829 8.11728 10.6335 8.1485 10.501 8.2168C10.3686 8.2851 10.2573 8.38844 10.1797 8.51562C10.1021 8.6429 10.0606 8.7894 10.0605 8.93848V17.0625C10.0606 17.2116 10.102 17.3581 10.1797 17.4854C10.2573 17.6125 10.3686 17.7159 10.501 17.7842C10.6335 17.8525 10.7829 17.8827 10.9316 17.8721C11.0803 17.8614 11.2233 17.8101 11.3447 17.7236L17.0312 13.6621C17.1366 13.587 17.223 13.4871 17.2822 13.3721C17.3414 13.2571 17.3721 13.1293 17.3721 13C17.372 12.8707 17.3414 12.7429 17.2822 12.6279C17.223 12.513 17.1365 12.414 17.0312 12.3389L11.3447 8.27734C11.2233 8.19089 11.0803 8.13862 10.9316 8.12793Z" fill="#E62F32"/>
</svg>
