<svg width="100" height="100" viewBox="0 0 100 100" fill="none" xmlns="http://www.w3.org/2000/svg">
<path fill-rule="evenodd" clip-rule="evenodd" d="M29.0375 10.2875C29.3278 9.99648 29.6726 9.76559 30.0523 9.60805C30.4319 9.45051 30.839 9.36941 31.25 9.36941C31.661 9.36941 32.0681 9.45051 32.4477 9.60805C32.8274 9.76559 33.1722 9.99648 33.4625 10.2875L70.9625 47.7875C71.2535 48.0778 71.4844 48.4226 71.642 48.8023C71.7995 49.1819 71.8806 49.589 71.8806 50C71.8806 50.411 71.7995 50.818 71.642 51.1977C71.4844 51.5774 71.2535 51.9222 70.9625 52.2125L33.4625 89.7125C32.8757 90.2993 32.0798 90.6289 31.25 90.6289C30.4202 90.6289 29.6243 90.2993 29.0375 89.7125C28.4507 89.1257 28.1211 88.3298 28.1211 87.5C28.1211 86.6701 28.4507 85.8743 29.0375 85.2875L64.3313 50L29.0375 14.7125C28.7465 14.4222 28.5156 14.0774 28.358 13.6977C28.2005 13.3181 28.1194 12.911 28.1194 12.5C28.1194 12.089 28.2005 11.6819 28.358 11.3023C28.5156 10.9226 28.7465 10.5778 29.0375 10.2875Z" fill="black"/>
</svg>
